<svg width="491" height="128" viewBox="0 0 491 128" fill="none" xmlns="http://www.w3.org/2000/svg">
<g clip-path="url(#clip0_22_2)">
<path d="M4 1.09999H36.5C44.9 1.09999 51.5333 3.23333 56.4 7.49999C61.2667 11.7 63.7 17.8 63.7 25.8C63.7 31 62.6 35.4333 60.4 39.1C58.2667 42.7667 55.2 45.5667 51.2 47.5L62.9 71H41.7L31.5 50.5H24.7V71H4V1.09999ZM32.4 34.1C35.6 34.1 38.0667 33.5 39.8 32.3C41.6 31.0333 42.5 28.8667 42.5 25.8C42.5 22.7333 41.6 20.6 39.8 19.4C38.0667 18.1333 35.6 17.5 32.4 17.5H24.7V34.1H32.4ZM69.7227 1.09999H120.423V18.5H90.4227V28.1H112.023V44H90.4227V53.6H120.423V71H69.7227V1.09999ZM125.387 1.09999H146.087V53.6H174.287V71H125.387V1.09999ZM210.601 72.5C203.534 72.5 197.101 70.9667 191.301 67.9C185.567 64.8333 181.034 60.5667 177.701 55.1C174.434 49.5667 172.801 43.2333 172.801 36.1C172.801 28.9667 174.434 22.6333 177.701 17.1C181.034 11.5667 185.567 7.26666 191.301 4.2C197.101 1.13333 203.534 -0.400005 210.601 -0.400005C217.667 -0.400005 224.034 1.13333 229.701 4.2C235.434 7.26666 239.934 11.5667 243.201 17.1C246.534 22.6333 248.201 28.9667 248.201 36.1C248.201 43.2333 246.534 49.5667 243.201 55.1C239.934 60.5667 235.434 64.8333 229.701 67.9C224.034 70.9667 217.667 72.5 210.601 72.5ZM210.601 53.1C213.667 53.1 216.434 52.4333 218.901 51.1C221.434 49.7 223.434 47.7333 224.901 45.2C226.367 42.6 227.101 39.5667 227.101 36.1C227.101 30.9667 225.534 26.8667 222.401 23.8C219.267 20.7333 215.334 19.2 210.601 19.2C205.801 19.2 201.801 20.7333 198.601 23.8C195.467 26.8667 193.901 30.9667 193.901 36.1C193.901 39.5667 194.634 42.6 196.101 45.2C197.567 47.7333 199.567 49.7 202.101 51.1C204.634 52.4333 207.467 53.1 210.601 53.1Z" fill="black"/>
<path d="M274.156 72.5C269.69 72.5 265.19 72.0333 260.656 71.1C256.123 70.2333 252.456 69.0667 249.656 67.6V49.3C253.323 51.3 257.156 52.8 261.156 53.8C265.223 54.8 269.023 55.3 272.556 55.3C277.69 55.3 280.256 53.9333 280.256 51.2C280.256 50.0667 279.856 49.1 279.056 48.3C278.323 47.4333 277.19 46.6333 275.656 45.9C274.123 45.1 271.69 43.9667 268.356 42.5C261.89 39.7 257.19 36.6333 254.256 33.3C251.39 29.9667 249.956 25.8333 249.956 20.9C249.956 16.7667 251.09 13.1 253.356 9.9C255.69 6.63333 258.923 4.1 263.056 2.3C267.19 0.499996 271.956 -0.400005 277.356 -0.400005C281.756 -0.400005 285.656 -0.0333367 289.056 0.699999C292.456 1.36667 295.756 2.46666 298.956 4V21.7C293.156 18.5 287.223 16.9 281.156 16.9C278.49 16.9 276.356 17.3 274.756 18.1C273.156 18.8333 272.356 19.9333 272.356 21.4C272.356 22.8667 273.056 24.0667 274.456 25C275.923 25.8667 278.656 27.1 282.656 28.7L284.856 29.6C289.59 31.5333 293.223 33.4667 295.756 35.4C298.356 37.2667 300.223 39.4667 301.356 42C302.49 44.4667 303.056 47.6 303.056 51.4C303.056 58 300.656 63.1667 295.856 66.9C291.056 70.6333 283.823 72.5 274.156 72.5ZM330.586 1.09999H350.486L378.386 71H357.186L351.986 57.7H329.086L323.786 71H302.586L330.586 1.09999ZM347.186 42L340.486 22.4L333.786 42H347.186ZM384.371 1.09999H435.071V18.5H405.071V28.1H426.671V44H405.071V71H384.371V1.09999ZM439.059 1.09999H489.759V18.5H459.759V28.1H481.359V44H459.759V53.6H489.759V71H439.059V1.09999Z" fill="#4526B1"/>
<path d="M11.476 96.834C14.2627 96.834 16.3907 97.442 17.86 98.658C19.3547 99.8487 20.102 101.685 20.102 104.168V118H16.15L15.048 115.188H14.896C14.3133 115.923 13.7053 116.531 13.072 117.012C12.464 117.493 11.7547 117.835 10.944 118.038C10.1587 118.266 9.18333 118.38 8.018 118.38C6.802 118.38 5.7 118.152 4.712 117.696C3.74933 117.215 2.98933 116.493 2.432 115.53C1.87467 114.542 1.596 113.301 1.596 111.806C1.596 109.602 2.36867 107.981 3.914 106.942C5.45933 105.878 7.77733 105.295 10.868 105.194L14.478 105.08V104.168C14.478 103.079 14.1867 102.281 13.604 101.774C13.0467 101.267 12.2613 101.014 11.248 101.014C10.2347 101.014 9.24667 101.166 8.284 101.47C7.32133 101.749 6.35867 102.103 5.396 102.534L3.534 98.696C4.64867 98.1133 5.87733 97.6573 7.22 97.328C8.588 96.9987 10.0067 96.834 11.476 96.834ZM12.274 108.462C10.45 108.513 9.18333 108.842 8.474 109.45C7.76467 110.058 7.41 110.856 7.41 111.844C7.41 112.705 7.66333 113.326 8.17 113.706C8.67667 114.061 9.33533 114.238 10.146 114.238C11.362 114.238 12.388 113.883 13.224 113.174C14.06 112.439 14.478 111.413 14.478 110.096V108.386L12.274 108.462ZM40.2607 97.252V101.508H31.5967V118H25.9347V97.252H40.2607ZM52.2601 96.872C54.1854 96.872 55.8321 97.2393 57.2001 97.974C58.5934 98.7087 59.6701 99.7727 60.4301 101.166C61.1901 102.559 61.5701 104.269 61.5701 106.296V109.032H48.1941C48.2448 110.628 48.7134 111.882 49.6001 112.794C50.5121 113.706 51.7661 114.162 53.3621 114.162C54.7048 114.162 55.9208 114.035 57.0101 113.782C58.0994 113.503 59.2268 113.085 60.3921 112.528V116.898C59.3788 117.405 58.3021 117.772 57.1621 118C56.0474 118.253 54.6921 118.38 53.0961 118.38C51.0188 118.38 49.1821 118 47.5861 117.24C45.9901 116.455 44.7361 115.277 43.8241 113.706C42.9121 112.135 42.4561 110.159 42.4561 107.778C42.4561 105.346 42.8614 103.332 43.6721 101.736C44.5081 100.115 45.6608 98.8987 47.1301 98.088C48.5994 97.2773 50.3094 96.872 52.2601 96.872ZM52.2981 100.9C51.2088 100.9 50.2968 101.255 49.5621 101.964C48.8528 102.673 48.4348 103.775 48.3081 105.27H56.2501C56.2501 104.434 56.0981 103.687 55.7941 103.028C55.5154 102.369 55.0848 101.85 54.5021 101.47C53.9194 101.09 53.1848 100.9 52.2981 100.9ZM71.8233 97.252V105.232H79.7273V97.252H85.3893V118H79.7273V109.45H71.8233V118H66.1613V97.252H71.8233ZM108.497 101.508H101.695V118H96.0334V101.508H89.2314V97.252H108.497V101.508ZM120.39 118.38C118.338 118.38 116.59 118.013 115.146 117.278C113.702 116.518 112.6 115.353 111.84 113.782C111.08 112.211 110.7 110.197 110.7 107.74C110.7 105.207 111.131 103.142 111.992 101.546C112.854 99.95 114.044 98.772 115.564 98.012C117.11 97.252 118.883 96.872 120.884 96.872C122.303 96.872 123.532 97.0113 124.57 97.29C125.634 97.5687 126.559 97.898 127.344 98.278L125.672 102.648C124.786 102.293 123.95 102.002 123.164 101.774C122.404 101.546 121.644 101.432 120.884 101.432C119.896 101.432 119.073 101.673 118.414 102.154C117.756 102.61 117.262 103.307 116.932 104.244C116.628 105.156 116.476 106.309 116.476 107.702C116.476 109.07 116.641 110.21 116.97 111.122C117.325 112.009 117.832 112.68 118.49 113.136C119.149 113.567 119.947 113.782 120.884 113.782C122.075 113.782 123.126 113.63 124.038 113.326C124.95 112.997 125.837 112.553 126.698 111.996V116.822C125.837 117.379 124.925 117.772 123.962 118C123.025 118.253 121.834 118.38 120.39 118.38ZM148.65 101.508H141.848V118H136.186V101.508H129.384V97.252H148.65V101.508ZM170.87 102.686C170.87 103.801 170.515 104.751 169.806 105.536C169.122 106.321 168.096 106.828 166.728 107.056V107.208C168.172 107.385 169.324 107.879 170.186 108.69C171.072 109.501 171.516 110.539 171.516 111.806C171.516 112.693 171.338 113.516 170.984 114.276C170.654 115.036 170.122 115.695 169.388 116.252C168.653 116.809 167.703 117.24 166.538 117.544C165.398 117.848 164.004 118 162.358 118H152.478V97.252H162.358C163.979 97.252 165.423 97.4293 166.69 97.784C167.982 98.1133 168.995 98.6707 169.73 99.456C170.49 100.241 170.87 101.318 170.87 102.686ZM165.664 111.502C165.664 110.691 165.347 110.109 164.714 109.754C164.08 109.374 163.13 109.184 161.864 109.184H158.14V114.086H161.978C163.042 114.086 163.916 113.896 164.6 113.516C165.309 113.111 165.664 112.439 165.664 111.502ZM165.132 103.142C165.132 102.483 164.878 102.002 164.372 101.698C163.865 101.394 163.118 101.242 162.13 101.242H158.14V105.346H161.484C162.674 105.346 163.574 105.181 164.182 104.852C164.815 104.497 165.132 103.927 165.132 103.142ZM195.224 107.588C195.224 109.311 194.983 110.843 194.502 112.186C194.046 113.529 193.375 114.669 192.488 115.606C191.627 116.518 190.575 117.215 189.334 117.696C188.093 118.152 186.687 118.38 185.116 118.38C183.672 118.38 182.329 118.152 181.088 117.696C179.872 117.215 178.821 116.518 177.934 115.606C177.047 114.669 176.351 113.529 175.844 112.186C175.363 110.843 175.122 109.311 175.122 107.588C175.122 105.283 175.527 103.345 176.338 101.774C177.149 100.178 178.314 98.962 179.834 98.126C181.354 97.29 183.153 96.872 185.23 96.872C187.181 96.872 188.903 97.29 190.398 98.126C191.893 98.962 193.071 100.178 193.932 101.774C194.793 103.345 195.224 105.283 195.224 107.588ZM180.898 107.588C180.898 108.956 181.037 110.109 181.316 111.046C181.62 111.958 182.089 112.655 182.722 113.136C183.355 113.592 184.179 113.82 185.192 113.82C186.205 113.82 187.016 113.592 187.624 113.136C188.257 112.655 188.713 111.958 188.992 111.046C189.296 110.109 189.448 108.956 189.448 107.588C189.448 106.22 189.296 105.08 188.992 104.168C188.713 103.256 188.257 102.572 187.624 102.116C186.991 101.66 186.167 101.432 185.154 101.432C183.659 101.432 182.57 101.951 181.886 102.99C181.227 104.003 180.898 105.536 180.898 107.588ZM230.923 97.252V118H225.261V101.508H217.737V118H212.075V97.252H230.923ZM255.712 107.588C255.712 109.311 255.472 110.843 254.99 112.186C254.534 113.529 253.863 114.669 252.976 115.606C252.115 116.518 251.064 117.215 249.822 117.696C248.581 118.152 247.175 118.38 245.604 118.38C244.16 118.38 242.818 118.152 241.576 117.696C240.36 117.215 239.309 116.518 238.422 115.606C237.536 114.669 236.839 113.529 236.332 112.186C235.851 110.843 235.61 109.311 235.61 107.588C235.61 105.283 236.016 103.345 236.826 101.774C237.637 100.178 238.802 98.962 240.322 98.126C241.842 97.29 243.641 96.872 245.718 96.872C247.669 96.872 249.392 97.29 250.886 98.126C252.381 98.962 253.559 100.178 254.42 101.774C255.282 103.345 255.712 105.283 255.712 107.588ZM241.386 107.588C241.386 108.956 241.526 110.109 241.804 111.046C242.108 111.958 242.577 112.655 243.21 113.136C243.844 113.592 244.667 113.82 245.68 113.82C246.694 113.82 247.504 113.592 248.112 113.136C248.746 112.655 249.202 111.958 249.48 111.046C249.784 110.109 249.936 108.956 249.936 107.588C249.936 106.22 249.784 105.08 249.48 104.168C249.202 103.256 248.746 102.572 248.112 102.116C247.479 101.66 246.656 101.432 245.642 101.432C244.148 101.432 243.058 101.951 242.374 102.99C241.716 104.003 241.386 105.536 241.386 107.588ZM284.116 96.872C286.446 96.872 288.334 97.784 289.778 99.608C291.222 101.407 291.944 104.067 291.944 107.588C291.944 109.944 291.602 111.933 290.918 113.554C290.234 115.15 289.296 116.353 288.106 117.164C286.915 117.975 285.534 118.38 283.964 118.38C282.976 118.38 282.114 118.253 281.38 118C280.67 117.747 280.062 117.417 279.556 117.012C279.049 116.607 278.606 116.176 278.226 115.72H277.922C278.023 116.201 278.099 116.708 278.15 117.24C278.2 117.747 278.226 118.253 278.226 118.76V127.12H272.564V97.252H277.162L277.96 99.95H278.226C278.606 99.3927 279.062 98.886 279.594 98.43C280.126 97.9487 280.759 97.5687 281.494 97.29C282.254 97.0113 283.128 96.872 284.116 96.872ZM282.292 101.394C281.304 101.394 280.518 101.597 279.936 102.002C279.353 102.407 278.922 103.028 278.644 103.864C278.39 104.675 278.251 105.701 278.226 106.942V107.55C278.226 108.893 278.352 110.033 278.606 110.97C278.859 111.882 279.29 112.579 279.898 113.06C280.506 113.541 281.329 113.782 282.368 113.782C283.229 113.782 283.938 113.541 284.496 113.06C285.053 112.579 285.471 111.869 285.75 110.932C286.028 109.995 286.168 108.855 286.168 107.512C286.168 105.485 285.851 103.965 285.218 102.952C284.61 101.913 283.634 101.394 282.292 101.394ZM305.16 96.872C307.086 96.872 308.732 97.2393 310.1 97.974C311.494 98.7087 312.57 99.7727 313.33 101.166C314.09 102.559 314.47 104.269 314.47 106.296V109.032H301.094C301.145 110.628 301.614 111.882 302.5 112.794C303.412 113.706 304.666 114.162 306.262 114.162C307.605 114.162 308.821 114.035 309.91 113.782C311 113.503 312.127 113.085 313.292 112.528V116.898C312.279 117.405 311.202 117.772 310.062 118C308.948 118.253 307.592 118.38 305.996 118.38C303.919 118.38 302.082 118 300.486 117.24C298.89 116.455 297.636 115.277 296.724 113.706C295.812 112.135 295.356 110.159 295.356 107.778C295.356 105.346 295.762 103.332 296.572 101.736C297.408 100.115 298.561 98.8987 300.03 98.088C301.5 97.2773 303.21 96.872 305.16 96.872ZM305.198 100.9C304.109 100.9 303.197 101.255 302.462 101.964C301.753 102.673 301.335 103.775 301.208 105.27H309.15C309.15 104.434 308.998 103.687 308.694 103.028C308.416 102.369 307.985 101.85 307.402 101.47C306.82 101.09 306.085 100.9 305.198 100.9ZM337.644 118H331.982V101.508H326.776C326.522 104.548 326.206 107.145 325.826 109.298C325.471 111.426 325.015 113.161 324.458 114.504C323.926 115.847 323.242 116.835 322.406 117.468C321.57 118.076 320.544 118.38 319.328 118.38C318.669 118.38 318.074 118.329 317.542 118.228C317.01 118.127 316.528 117.975 316.098 117.772V113.25C316.376 113.351 316.668 113.44 316.972 113.516C317.276 113.592 317.592 113.63 317.922 113.63C318.276 113.63 318.606 113.491 318.91 113.212C319.239 112.933 319.543 112.439 319.822 111.73C320.126 111.021 320.404 110.045 320.658 108.804C320.911 107.563 321.139 106.005 321.342 104.13C321.57 102.23 321.772 99.9373 321.95 97.252H337.644V118ZM362.402 107.588C362.402 109.311 362.161 110.843 361.68 112.186C361.224 113.529 360.553 114.669 359.666 115.606C358.805 116.518 357.753 117.215 356.512 117.696C355.271 118.152 353.865 118.38 352.294 118.38C350.85 118.38 349.507 118.152 348.266 117.696C347.05 117.215 345.999 116.518 345.112 115.606C344.225 114.669 343.529 113.529 343.022 112.186C342.541 110.843 342.3 109.311 342.3 107.588C342.3 105.283 342.705 103.345 343.516 101.774C344.327 100.178 345.492 98.962 347.012 98.126C348.532 97.29 350.331 96.872 352.408 96.872C354.359 96.872 356.081 97.29 357.576 98.126C359.071 98.962 360.249 100.178 361.11 101.774C361.971 103.345 362.402 105.283 362.402 107.588ZM348.076 107.588C348.076 108.956 348.215 110.109 348.494 111.046C348.798 111.958 349.267 112.655 349.9 113.136C350.533 113.592 351.357 113.82 352.37 113.82C353.383 113.82 354.194 113.592 354.802 113.136C355.435 112.655 355.891 111.958 356.17 111.046C356.474 110.109 356.626 108.956 356.626 107.588C356.626 106.22 356.474 105.08 356.17 104.168C355.891 103.256 355.435 102.572 354.802 102.116C354.169 101.66 353.345 101.432 352.332 101.432C350.837 101.432 349.748 101.951 349.064 102.99C348.405 104.003 348.076 105.536 348.076 107.588ZM380.685 97.252H386.917L378.709 107.208L387.639 118H381.217L372.743 107.474V118H367.081V97.252H372.743V107.322L380.685 97.252ZM399.121 96.834C401.907 96.834 404.035 97.442 405.505 98.658C406.999 99.8487 407.747 101.685 407.747 104.168V118H403.795L402.693 115.188H402.541C401.958 115.923 401.35 116.531 400.717 117.012C400.109 117.493 399.399 117.835 398.589 118.038C397.803 118.266 396.828 118.38 395.663 118.38C394.447 118.38 393.345 118.152 392.357 117.696C391.394 117.215 390.634 116.493 390.077 115.53C389.519 114.542 389.241 113.301 389.241 111.806C389.241 109.602 390.013 107.981 391.559 106.942C393.104 105.878 395.422 105.295 398.513 105.194L402.123 105.08V104.168C402.123 103.079 401.831 102.281 401.249 101.774C400.691 101.267 399.906 101.014 398.893 101.014C397.879 101.014 396.891 101.166 395.929 101.47C394.966 101.749 394.003 102.103 393.041 102.534L391.179 98.696C392.293 98.1133 393.522 97.6573 394.865 97.328C396.233 96.9987 397.651 96.834 399.121 96.834ZM399.919 108.462C398.095 108.513 396.828 108.842 396.119 109.45C395.409 110.058 395.055 110.856 395.055 111.844C395.055 112.705 395.308 113.326 395.815 113.706C396.321 114.061 396.98 114.238 397.791 114.238C399.007 114.238 400.033 113.883 400.869 113.174C401.705 112.439 402.123 111.413 402.123 110.096V108.386L399.919 108.462ZM436.227 125.448H431.135V118H413.579V97.252H419.241V113.744H427.525V97.252H433.187V113.858H436.227V125.448ZM445.213 105.46C445.213 105.891 445.188 106.423 445.137 107.056C445.112 107.689 445.074 108.335 445.023 108.994C444.998 109.653 444.96 110.235 444.909 110.742C444.859 111.249 444.821 111.603 444.795 111.806L454.371 97.252H461.173V118H455.701V109.716C455.701 109.032 455.727 108.285 455.777 107.474C455.828 106.638 455.879 105.865 455.929 105.156C456.005 104.421 456.056 103.864 456.081 103.484L446.543 118H439.741V97.252H445.213V105.46ZM472.563 105.46C472.563 105.891 472.538 106.423 472.487 107.056C472.462 107.689 472.424 108.335 472.373 108.994C472.348 109.653 472.31 110.235 472.259 110.742C472.208 111.249 472.17 111.603 472.145 111.806L481.721 97.252H488.523V118H483.051V109.716C483.051 109.032 483.076 108.285 483.127 107.474C483.178 106.638 483.228 105.865 483.279 105.156C483.355 104.421 483.406 103.864 483.431 103.484L473.893 118H467.091V97.252H472.563V105.46Z" fill="black"/>
</g>
<defs>
<clipPath id="clip0_22_2">
<rect width="491" height="128" fill="white"/>
</clipPath>
</defs>
</svg>
